<svg xmlns="http://www.w3.org/2000/svg" width="1440" height="900"><path d="M723,512L697,596L804,555Z" fill="#1d2d34" stroke="#1d2d34" stroke-width="1.51"/><path d="M723,512L610,489L697,596Z" fill="#1e2f37" stroke="#1e2f37" stroke-width="1.51"/><path d="M804,555L797,323L723,512Z" fill="#1f2f37" stroke="#1f2f37" stroke-width="1.51"/><path d="M723,512L678,370L610,489Z" fill="#203139" stroke="#203139" stroke-width="1.51"/><path d="M953,614L933,506L804,555Z" fill="#1b2a30" stroke="#1b2a30" stroke-width="1.51"/><path d="M766,766L902,689L804,555Z" fill="#1a282e" stroke="#1a282e" stroke-width="1.51"/><path d="M697,596L766,766L804,555Z" fill="#1b2b31" stroke="#1b2b31" stroke-width="1.51"/><path d="M582,704L766,766L697,596Z" fill="#1b2a31" stroke="#1b2a31" stroke-width="1.51"/><path d="M797,323L678,370L723,512Z" fill="#20323a" stroke="#20323a" stroke-width="1.51"/><path d="M902,689L953,614L804,555Z" fill="#1a292e" stroke="#1a292e" stroke-width="1.51"/><path d="M610,489L582,704L697,596Z" fill="#1d2e35" stroke="#1d2e35" stroke-width="1.51"/><path d="M933,506L797,323L804,555Z" fill="#1d2e35" stroke="#1d2e35" stroke-width="1.51"/><path d="M610,489L478,523L582,704Z" fill="#1e3038" stroke="#1e3038" stroke-width="1.51"/><path d="M678,370L568,390L610,489Z" fill="#21343c" stroke="#21343c" stroke-width="1.51"/><path d="M558,236L568,390L678,370Z" fill="#233640" stroke="#233640" stroke-width="1.51"/><path d="M766,766L853,808L902,689Z" fill="#17262a" stroke="#17262a" stroke-width="1.51"/><path d="M902,689L1068,698L953,614Z" fill="#18262b" stroke="#18262b" stroke-width="1.51"/><path d="M693,952L853,808L766,766Z" fill="#172529" stroke="#172529" stroke-width="1.51"/><path d="M568,390L478,523L610,489Z" fill="#20333c" stroke="#20333c" stroke-width="1.51"/><path d="M582,704L654,833L766,766Z" fill="#19292e" stroke="#19292e" stroke-width="1.51"/><path d="M555,883L654,833L582,704Z" fill="#1a292e" stroke="#1a292e" stroke-width="1.51"/><path d="M933,506L954,356L797,323Z" fill="#1e2f36" stroke="#1e2f36" stroke-width="1.51"/><path d="M1082,489L954,356L933,506Z" fill="#1c2c32" stroke="#1c2c32" stroke-width="1.51"/><path d="M797,323L763,252L678,370Z" fill="#21343d" stroke="#21343d" stroke-width="1.51"/><path d="M910,243L763,252L797,323Z" fill="#21343d" stroke="#21343d" stroke-width="1.51"/><path d="M478,523L452,708L582,704Z" fill="#1e2f36" stroke="#1e2f36" stroke-width="1.51"/><path d="M953,614L1082,489L933,506Z" fill="#1a292f" stroke="#1a292f" stroke-width="1.51"/><path d="M1068,698L1082,489L953,614Z" fill="#19272b" stroke="#19272b" stroke-width="1.51"/><path d="M1034,803L1068,698L902,689Z" fill="#162428" stroke="#162428" stroke-width="1.51"/><path d="M954,356L910,243L797,323Z" fill="#20323a" stroke="#20323a" stroke-width="1.51"/><path d="M1050,275L910,243L954,356Z" fill="#1f3139" stroke="#1f3139" stroke-width="1.51"/><path d="M568,390L420,400L478,523Z" fill="#22353f" stroke="#22353f" stroke-width="1.51"/><path d="M478,523L381,631L452,708Z" fill="#1f3139" stroke="#1f3139" stroke-width="1.51"/><path d="M498,238L420,400L568,390Z" fill="#243842" stroke="#243842" stroke-width="1.51"/><path d="M654,833L693,952L766,766Z" fill="#18252a" stroke="#18252a" stroke-width="1.51"/><path d="M455,799L555,883L582,704Z" fill="#1b2a30" stroke="#1b2a30" stroke-width="1.51"/><path d="M389,464L381,631L478,523Z" fill="#21343d" stroke="#21343d" stroke-width="1.51"/><path d="M452,708L455,799L582,704Z" fill="#1c2d33" stroke="#1c2d33" stroke-width="1.51"/><path d="M420,400L389,464L478,523Z" fill="#22363f" stroke="#22363f" stroke-width="1.51"/><path d="M933,955L1034,803L853,808Z" fill="#152124" stroke="#152124" stroke-width="1.51"/><path d="M853,808L1034,803L902,689Z" fill="#162428" stroke="#162428" stroke-width="1.51"/><path d="M389,726L455,799L452,708Z" fill="#1d2d35" stroke="#1d2d35" stroke-width="1.51"/><path d="M670,186L558,236L678,370Z" fill="#233842" stroke="#233842" stroke-width="1.51"/><path d="M670,186L678,370L763,252Z" fill="#223640" stroke="#223640" stroke-width="1.51"/><path d="M832,139L670,186L763,252Z" fill="#233842" stroke="#233842" stroke-width="1.51"/><path d="M555,883L693,952L654,833Z" fill="#18262a" stroke="#18262a" stroke-width="1.51"/><path d="M381,631L389,726L452,708Z" fill="#1e2f37" stroke="#1e2f37" stroke-width="1.51"/><path d="M693,952L889,948L853,808Z" fill="#152326" stroke="#152326" stroke-width="1.51"/><path d="M420,400L269,443L389,464Z" fill="#243842" stroke="#243842" stroke-width="1.51"/><path d="M558,236L498,238L568,390Z" fill="#243843" stroke="#243843" stroke-width="1.51"/><path d="M517,169L498,238L558,236Z" fill="#263b46" stroke="#263b46" stroke-width="1.51"/><path d="M910,243L832,139L763,252Z" fill="#22363f" stroke="#22363f" stroke-width="1.51"/><path d="M1151,384L1050,275L954,356Z" fill="#1d2e35" stroke="#1d2e35" stroke-width="1.51"/><path d="M889,948L933,955L853,808Z" fill="#142124" stroke="#142124" stroke-width="1.51"/><path d="M798,1053L933,955L889,948Z" fill="#142125" stroke="#142125" stroke-width="1.51"/><path d="M925,71L832,139L910,243Z" fill="#233741" stroke="#233741" stroke-width="1.51"/><path d="M1034,803L1159,719L1068,698Z" fill="#152225" stroke="#152225" stroke-width="1.51"/><path d="M1068,698L1185,513L1082,489Z" fill="#18262b" stroke="#18262b" stroke-width="1.51"/><path d="M1082,489L1151,384L954,356Z" fill="#1c2c32" stroke="#1c2c32" stroke-width="1.51"/><path d="M1142,865L1159,719L1034,803Z" fill="#142022" stroke="#142022" stroke-width="1.51"/><path d="M1159,719L1185,513L1068,698Z" fill="#162427" stroke="#162427" stroke-width="1.51"/><path d="M1185,513L1151,384L1082,489Z" fill="#1a292e" stroke="#1a292e" stroke-width="1.51"/><path d="M693,952L798,1053L889,948Z" fill="#152326" stroke="#152326" stroke-width="1.51"/><path d="M555,883L615,1003L693,952Z" fill="#17262a" stroke="#17262a" stroke-width="1.51"/><path d="M456,958L615,1003L555,883Z" fill="#18272c" stroke="#18272c" stroke-width="1.51"/><path d="M456,958L555,883L455,799Z" fill="#1a282e" stroke="#1a282e" stroke-width="1.51"/><path d="M670,186L517,169L558,236Z" fill="#253b46" stroke="#253b46" stroke-width="1.51"/><path d="M248,342L269,443L420,400Z" fill="#253a45" stroke="#253a45" stroke-width="1.51"/><path d="M617,82L517,169L670,186Z" fill="#263c48" stroke="#263c48" stroke-width="1.51"/><path d="M1050,275L1043,212L910,243Z" fill="#1f323a" stroke="#1f323a" stroke-width="1.51"/><path d="M1070,167L1043,212L1190,214Z" fill="#1f3139" stroke="#1f3139" stroke-width="1.51"/><path d="M615,1003L692,1050L693,952Z" fill="#172529" stroke="#172529" stroke-width="1.51"/><path d="M337,930L456,958L455,799Z" fill="#1a292f" stroke="#1a292f" stroke-width="1.51"/><path d="M615,1003L492,1059L692,1050Z" fill="#18262b" stroke="#18262b" stroke-width="1.51"/><path d="M692,1050L798,1053L693,952Z" fill="#162428" stroke="#162428" stroke-width="1.51"/><path d="M389,464L239,538L381,631Z" fill="#22353f" stroke="#22353f" stroke-width="1.51"/><path d="M381,631L208,730L389,726Z" fill="#1f3138" stroke="#1f3138" stroke-width="1.51"/><path d="M389,726L337,930L455,799Z" fill="#1c2c33" stroke="#1c2c33" stroke-width="1.51"/><path d="M248,342L420,400L323,210Z" fill="#263c47" stroke="#263c47" stroke-width="1.51"/><path d="M1348,471L1248,430L1185,513Z" fill="#18272b" stroke="#18272b" stroke-width="1.51"/><path d="M1043,1010L1142,865L1034,803Z" fill="#121e20" stroke="#121e20" stroke-width="1.51"/><path d="M1043,1010L1034,803L933,955Z" fill="#131f21" stroke="#131f21" stroke-width="1.51"/><path d="M832,139L617,82L670,186Z" fill="#253a45" stroke="#253a45" stroke-width="1.51"/><path d="M269,443L239,538L389,464Z" fill="#233742" stroke="#233742" stroke-width="1.51"/><path d="M1142,865L1188,826L1159,719Z" fill="#131f21" stroke="#131f21" stroke-width="1.51"/><path d="M1043,212L925,71L910,243Z" fill="#21343e" stroke="#21343e" stroke-width="1.51"/><path d="M832,139L761,-36L617,82Z" fill="#263c48" stroke="#263c48" stroke-width="1.51"/><path d="M1190,214L1043,212L1050,275Z" fill="#1f3138" stroke="#1f3138" stroke-width="1.51"/><path d="M1151,384L1190,214L1050,275Z" fill="#1d2e35" stroke="#1d2e35" stroke-width="1.51"/><path d="M1185,513L1248,430L1151,384Z" fill="#19282e" stroke="#19282e" stroke-width="1.51"/><path d="M1296,603L1185,513L1159,719Z" fill="#162327" stroke="#162327" stroke-width="1.51"/><path d="M1070,167L925,71L1043,212Z" fill="#21343e" stroke="#21343e" stroke-width="1.51"/><path d="M798,1053L1043,1010L933,955Z" fill="#142023" stroke="#142023" stroke-width="1.51"/><path d="M1142,865L1195,916L1188,826Z" fill="#121d1f" stroke="#121d1f" stroke-width="1.51"/><path d="M323,210L498,238L517,169Z" fill="#273d49" stroke="#273d49" stroke-width="1.51"/><path d="M323,210L420,400L498,238Z" fill="#273b47" stroke="#273b47" stroke-width="1.51"/><path d="M269,443L70,519L239,538Z" fill="#243944" stroke="#243944" stroke-width="1.51"/><path d="M252,916L337,930L389,726Z" fill="#1c2c33" stroke="#1c2c33" stroke-width="1.51"/><path d="M456,958L492,1059L615,1003Z" fill="#19272d" stroke="#19272d" stroke-width="1.51"/><path d="M1395,735L1296,603L1159,719Z" fill="#142023" stroke="#142023" stroke-width="1.51"/><path d="M311,168L323,210L517,169Z" fill="#283f4b" stroke="#283f4b" stroke-width="1.51"/><path d="M692,1050L492,1059L798,1053Z" fill="#172529" stroke="#172529" stroke-width="1.51"/><path d="M300,1003L492,1059L456,958Z" fill="#1a292f" stroke="#1a292f" stroke-width="1.51"/><path d="M196,693L208,730L381,631Z" fill="#20323b" stroke="#20323b" stroke-width="1.51"/><path d="M196,693L381,631L239,538Z" fill="#21343d" stroke="#21343d" stroke-width="1.51"/><path d="M70,519L196,693L239,538Z" fill="#233741" stroke="#233741" stroke-width="1.51"/><path d="M1248,430L1190,214L1151,384Z" fill="#1b2b32" stroke="#1b2b32" stroke-width="1.51"/><path d="M976,-28L878,-2L925,71Z" fill="#253a45" stroke="#253a45" stroke-width="1.51"/><path d="M1344,251L1190,214L1248,430Z" fill="#1b2c32" stroke="#1b2c32" stroke-width="1.51"/><path d="M1395,735L1394,620L1296,603Z" fill="#141f22" stroke="#141f22" stroke-width="1.51"/><path d="M1170,982L1195,916L1142,865Z" fill="#111c1e" stroke="#111c1e" stroke-width="1.51"/><path d="M976,-28L925,71L1070,167Z" fill="#233741" stroke="#233741" stroke-width="1.51"/><path d="M925,71L878,-2L832,139Z" fill="#243944" stroke="#243944" stroke-width="1.51"/><path d="M459,32L517,169L617,82Z" fill="#283f4b" stroke="#283f4b" stroke-width="1.51"/><path d="M459,32L311,168L517,169Z" fill="#29404d" stroke="#29404d" stroke-width="1.51"/><path d="M323,210L154,218L248,342Z" fill="#293f4c" stroke="#293f4c" stroke-width="1.51"/><path d="M1043,1010L1170,982L1142,865Z" fill="#121d1f" stroke="#121d1f" stroke-width="1.51"/><path d="M761,-36L590,-14L617,82Z" fill="#293f4c" stroke="#293f4c" stroke-width="1.51"/><path d="M878,-2L761,-36L832,139Z" fill="#263b47" stroke="#263b47" stroke-width="1.51"/><path d="M1348,471L1334,435L1248,430Z" fill="#18262b" stroke="#18262b" stroke-width="1.51"/><path d="M590,-14L459,32L617,82Z" fill="#29404d" stroke="#29404d" stroke-width="1.51"/><path d="M337,930L300,1003L456,958Z" fill="#1b2a30" stroke="#1b2a30" stroke-width="1.51"/><path d="M208,730L252,916L389,726Z" fill="#1e2f36" stroke="#1e2f36" stroke-width="1.51"/><path d="M56,897L252,916L208,730Z" fill="#1e2f37" stroke="#1e2f37" stroke-width="1.51"/><path d="M1296,603L1348,471L1185,513Z" fill="#172429" stroke="#172429" stroke-width="1.51"/><path d="M1394,620L1348,471L1296,603Z" fill="#152226" stroke="#152226" stroke-width="1.51"/><path d="M252,916L300,1003L337,930Z" fill="#1c2c32" stroke="#1c2c32" stroke-width="1.51"/><path d="M1344,251L1245,171L1190,214Z" fill="#1d2e35" stroke="#1d2e35" stroke-width="1.51"/><path d="M1190,214L1245,171L1070,167Z" fill="#1f3138" stroke="#1f3138" stroke-width="1.51"/><path d="M1344,251L1248,430L1334,435Z" fill="#19282e" stroke="#19282e" stroke-width="1.51"/><path d="M1105,-39L976,-28L1070,167Z" fill="#233741" stroke="#233741" stroke-width="1.51"/><path d="M878,-2L882,-95L761,-36Z" fill="#263c47" stroke="#263c47" stroke-width="1.51"/><path d="M1395,735L1188,826L1316,953Z" fill="#111c1d" stroke="#111c1d" stroke-width="1.51"/><path d="M1395,735L1159,719L1188,826Z" fill="#131e21" stroke="#131e21" stroke-width="1.51"/><path d="M55,362L269,443L248,342Z" fill="#273d48" stroke="#273d48" stroke-width="1.51"/><path d="M459,32L330,57L311,168Z" fill="#2b4250" stroke="#2b4250" stroke-width="1.51"/><path d="M463,-112L330,57L459,32Z" fill="#2c4452" stroke="#2c4452" stroke-width="1.51"/><path d="M1316,953L1188,826L1195,916Z" fill="#111b1c" stroke="#111b1c" stroke-width="1.51"/><path d="M976,-28L882,-95L878,-2Z" fill="#253b46" stroke="#253b46" stroke-width="1.51"/><path d="M761,-36L648,-161L590,-14Z" fill="#283f4c" stroke="#283f4c" stroke-width="1.51"/><path d="M590,-14L463,-112L459,32Z" fill="#2a4250" stroke="#2a4250" stroke-width="1.51"/><path d="M1553,344L1334,435L1348,471Z" fill="#172629" stroke="#172629" stroke-width="1.51"/><path d="M1553,344L1344,251L1334,435Z" fill="#19282c" stroke="#19282c" stroke-width="1.51"/><path d="M154,218L323,210L176,177Z" fill="#2a424f" stroke="#2a424f" stroke-width="1.51"/><path d="M55,362L70,519L269,443Z" fill="#263c47" stroke="#263c47" stroke-width="1.51"/><path d="M196,693L78,685L208,730Z" fill="#21333d" stroke="#21333d" stroke-width="1.51"/><path d="M70,519L78,685L196,693Z" fill="#233740" stroke="#233740" stroke-width="1.51"/><path d="M252,916L180,1022L300,1003Z" fill="#1c2d33" stroke="#1c2d33" stroke-width="1.51"/><path d="M176,177L323,210L311,168Z" fill="#2a414e" stroke="#2a414e" stroke-width="1.51"/><path d="M1248,1076L1316,953L1170,982Z" fill="#111b1c" stroke="#111b1c" stroke-width="1.51"/><path d="M1170,982L1316,953L1195,916Z" fill="#111b1c" stroke="#111b1c" stroke-width="1.51"/><path d="M211,26L176,177L311,168Z" fill="#2c4352" stroke="#2c4352" stroke-width="1.51"/><path d="M976,-28L983,-95L882,-95Z" fill="#253a45" stroke="#253a45" stroke-width="1.51"/><path d="M1105,-39L983,-95L976,-28Z" fill="#243843" stroke="#243843" stroke-width="1.51"/><path d="M1105,-39L1070,167L1211,-34Z" fill="#22353f" stroke="#22353f" stroke-width="1.51"/><path d="M1211,-34L1070,167L1245,171Z" fill="#20333c" stroke="#20333c" stroke-width="1.51"/><path d="M1394,620L1456,576L1348,471Z" fill="#152225" stroke="#152225" stroke-width="1.51"/><path d="M1493,610L1456,576L1394,620Z" fill="#132022" stroke="#132022" stroke-width="1.51"/><path d="M1493,610L1394,620L1501,716Z" fill="#131e21" stroke="#131e21" stroke-width="1.51"/><path d="M1043,1010L1248,1076L1170,982Z" fill="#121c1e" stroke="#121c1e" stroke-width="1.51"/><path d="M798,1053L1248,1076L1043,1010Z" fill="#131f21" stroke="#131f21" stroke-width="1.51"/><path d="M492,1059L1248,1076L798,1053Z" fill="#152225" stroke="#152225" stroke-width="1.51"/><path d="M-75,589L31,718L78,685Z" fill="#243842" stroke="#243842" stroke-width="1.51"/><path d="M154,218L55,362L248,342Z" fill="#293f4c" stroke="#293f4c" stroke-width="1.51"/><path d="M53,255L55,362L154,218Z" fill="#2a424f" stroke="#2a424f" stroke-width="1.51"/><path d="M56,897L180,1022L252,916Z" fill="#1d2e35" stroke="#1d2e35" stroke-width="1.51"/><path d="M300,1003L180,1022L492,1059Z" fill="#1b2b31" stroke="#1b2b31" stroke-width="1.51"/><path d="M78,685L31,718L208,730Z" fill="#21343e" stroke="#21343e" stroke-width="1.51"/><path d="M-75,589L78,685L70,519Z" fill="#243944" stroke="#243944" stroke-width="1.51"/><path d="M673,-190L648,-161L761,-36Z" fill="#283f4b" stroke="#283f4b" stroke-width="1.51"/><path d="M673,-190L761,-36L882,-95Z" fill="#273d49" stroke="#273d49" stroke-width="1.51"/><path d="M648,-161L463,-112L590,-14Z" fill="#2a414e" stroke="#2a414e" stroke-width="1.51"/><path d="M330,57L211,26L311,168Z" fill="#2c4452" stroke="#2c4452" stroke-width="1.51"/><path d="M1316,953L1510,860L1395,735Z" fill="#0f1a1a" stroke="#0f1a1a" stroke-width="1.51"/><path d="M1248,1076L1368,981L1316,953Z" fill="#0f1a1b" stroke="#0f1a1b" stroke-width="1.51"/><path d="M1539,235L1421,126L1344,251Z" fill="#1b2b31" stroke="#1b2b31" stroke-width="1.51"/><path d="M1501,716L1394,620L1395,735Z" fill="#121d1f" stroke="#121d1f" stroke-width="1.51"/><path d="M1421,126L1211,-34L1245,171Z" fill="#1f3139" stroke="#1f3139" stroke-width="1.51"/><path d="M1105,-39L1047,-138L983,-95Z" fill="#243843" stroke="#243843" stroke-width="1.51"/><path d="M648,-161L394,-182L463,-112Z" fill="#2a4250" stroke="#2a4250" stroke-width="1.51"/><path d="M1047,-138L673,-190L882,-95Z" fill="#263c47" stroke="#263c47" stroke-width="1.51"/><path d="M1047,-138L882,-95L983,-95Z" fill="#253a44" stroke="#253a44" stroke-width="1.51"/><path d="M69,145L53,255L154,218Z" fill="#2c4352" stroke="#2c4352" stroke-width="1.51"/><path d="M55,362L-40,475L70,519Z" fill="#273e4a" stroke="#273e4a" stroke-width="1.51"/><path d="M69,145L154,218L176,177Z" fill="#2c4452" stroke="#2c4452" stroke-width="1.51"/><path d="M394,-182L211,26L330,57Z" fill="#2d4655" stroke="#2d4655" stroke-width="1.51"/><path d="M1219,-149L1047,-138L1105,-39Z" fill="#233741" stroke="#233741" stroke-width="1.51"/><path d="M31,718L56,897L208,730Z" fill="#20323b" stroke="#20323b" stroke-width="1.51"/><path d="M1510,860L1501,716L1395,735Z" fill="#111b1c" stroke="#111b1c" stroke-width="1.51"/><path d="M-52,414L-40,475L55,362Z" fill="#283f4c" stroke="#283f4c" stroke-width="1.51"/><path d="M31,718L-78,829L56,897Z" fill="#21333c" stroke="#21333c" stroke-width="1.51"/><path d="M53,255L-52,414L55,362Z" fill="#2a414e" stroke="#2a414e" stroke-width="1.51"/><path d="M211,26L69,145L176,177Z" fill="#2d4554" stroke="#2d4554" stroke-width="1.51"/><path d="M1344,251L1421,126L1245,171Z" fill="#1d2d34" stroke="#1d2d34" stroke-width="1.51"/><path d="M1553,344L1348,471L1456,576Z" fill="#162428" stroke="#162428" stroke-width="1.51"/><path d="M-54,203L-52,414L53,255Z" fill="#2b4351" stroke="#2b4351" stroke-width="1.51"/><path d="M1368,981L1510,860L1316,953Z" fill="#0e1919" stroke="#0e1919" stroke-width="1.51"/><path d="M-131,479L-75,589L-40,475Z" fill="#273c48" stroke="#273c48" stroke-width="1.51"/><path d="M-40,475L-75,589L70,519Z" fill="#263c47" stroke="#263c47" stroke-width="1.51"/><path d="M1493,610L1569,559L1456,576Z" fill="#142023" stroke="#142023" stroke-width="1.51"/><path d="M1648,608L1569,559L1493,610Z" fill="#142023" stroke="#142023" stroke-width="1.51"/><path d="M1648,608L1493,610L1501,716Z" fill="#131f21" stroke="#131f21" stroke-width="1.51"/><path d="M463,-112L394,-182L330,57Z" fill="#2c4453" stroke="#2c4453" stroke-width="1.51"/><path d="M211,26L123,-2L69,145Z" fill="#2f4757" stroke="#2f4757" stroke-width="1.51"/><path d="M673,-190L394,-182L648,-161Z" fill="#2a414e" stroke="#2a414e" stroke-width="1.51"/><path d="M1569,559L1553,344L1456,576Z" fill="#152327" stroke="#152327" stroke-width="1.51"/><path d="M56,897L54,1043L180,1022Z" fill="#1e2f37" stroke="#1e2f37" stroke-width="1.51"/><path d="M180,1022L54,1043L492,1059Z" fill="#1c2d33" stroke="#1c2d33" stroke-width="1.51"/><path d="M-86,1041L54,1043L56,897Z" fill="#1f3139" stroke="#1f3139" stroke-width="1.51"/><path d="M69,145L-54,203L53,255Z" fill="#2c4554" stroke="#2c4554" stroke-width="1.51"/><path d="M205,-179L123,-2L211,26Z" fill="#2e4858" stroke="#2e4858" stroke-width="1.51"/><path d="M1510,860L1594,844L1501,716Z" fill="#101a1b" stroke="#101a1b" stroke-width="1.51"/><path d="M1368,981L1483,998L1510,860Z" fill="#0d1818" stroke="#0d1818" stroke-width="1.51"/><path d="M1248,1076L1483,998L1368,981Z" fill="#0f1919" stroke="#0f1919" stroke-width="1.51"/><path d="M1211,-34L1219,-149L1105,-39Z" fill="#22363f" stroke="#22363f" stroke-width="1.51"/><path d="M1047,-138L1219,-149L673,-190Z" fill="#253a44" stroke="#253a44" stroke-width="1.51"/><path d="M1338,-154L1219,-149L1211,-34Z" fill="#21343d" stroke="#21343d" stroke-width="1.51"/><path d="M1421,126L1428,-69L1211,-34Z" fill="#20333b" stroke="#20333b" stroke-width="1.51"/><path d="M1553,344L1539,235L1344,251Z" fill="#1a292e" stroke="#1a292e" stroke-width="1.51"/><path d="M-75,589L-78,829L31,718Z" fill="#233640" stroke="#233640" stroke-width="1.51"/><path d="M1539,235L1515,142L1421,126Z" fill="#1c2c32" stroke="#1c2c32" stroke-width="1.51"/><path d="M-121,101L-54,203L69,145Z" fill="#2e4757" stroke="#2e4757" stroke-width="1.51"/><path d="M-52,414L-131,479L-40,475Z" fill="#283e4a" stroke="#283e4a" stroke-width="1.51"/><path d="M-167,322L-131,479L-52,414Z" fill="#293f4c" stroke="#293f4c" stroke-width="1.51"/><path d="M-75,589L-158,828L-78,829Z" fill="#22353f" stroke="#22353f" stroke-width="1.51"/><path d="M-158,828L-90,874L-78,829Z" fill="#20333b" stroke="#20333b" stroke-width="1.51"/><path d="M-78,829L-90,874L56,897Z" fill="#20323a" stroke="#20323a" stroke-width="1.51"/><path d="M1483,998L1594,844L1510,860Z" fill="#0d1818" stroke="#0d1818" stroke-width="1.51"/><path d="M1569,559L1701,518L1553,344Z" fill="#162327" stroke="#162327" stroke-width="1.51"/><path d="M1676,773L1648,608L1501,716Z" fill="#121d1f" stroke="#121d1f" stroke-width="1.51"/><path d="M1671,235L1573,132L1539,235Z" fill="#1b2b31" stroke="#1b2b31" stroke-width="1.51"/><path d="M1539,235L1573,132L1515,142Z" fill="#1c2c32" stroke="#1c2c32" stroke-width="1.51"/><path d="M673,-190L205,-179L394,-182Z" fill="#2b4452" stroke="#2b4452" stroke-width="1.51"/><path d="M394,-182L205,-179L211,26Z" fill="#2d4756" stroke="#2d4756" stroke-width="1.51"/><path d="M-37,-41L-121,101L69,145Z" fill="#2f4a5a" stroke="#2f4a5a" stroke-width="1.51"/><path d="M1555,-47L1428,-69L1421,126Z" fill="#1f3139" stroke="#1f3139" stroke-width="1.51"/><path d="M1428,-69L1338,-154L1211,-34Z" fill="#21333c" stroke="#21333c" stroke-width="1.51"/><path d="M1219,-149L1338,-154L673,-190Z" fill="#243742" stroke="#243742" stroke-width="1.51"/><path d="M1515,142L1555,-47L1421,126Z" fill="#1e2e36" stroke="#1e2e36" stroke-width="1.51"/><path d="M1671,235L1539,235L1553,344Z" fill="#1a292f" stroke="#1a292f" stroke-width="1.51"/><path d="M-90,874L-86,1041L56,897Z" fill="#1f3139" stroke="#1f3139" stroke-width="1.51"/><path d="M-252,610L-158,828L-75,589Z" fill="#233742" stroke="#233742" stroke-width="1.51"/><path d="M-131,479L-252,610L-75,589Z" fill="#263b46" stroke="#263b46" stroke-width="1.51"/><path d="M-54,203L-167,322L-52,414Z" fill="#2a4250" stroke="#2a4250" stroke-width="1.51"/><path d="M-209,264L-167,322L-54,203Z" fill="#2b4452" stroke="#2b4452" stroke-width="1.51"/><path d="M1594,844L1676,773L1501,716Z" fill="#111b1c" stroke="#111b1c" stroke-width="1.51"/><path d="M1648,608L1701,518L1569,559Z" fill="#142124" stroke="#142124" stroke-width="1.51"/><path d="M1697,901L1676,773L1594,844Z" fill="#0f191a" stroke="#0f191a" stroke-width="1.51"/><path d="M1806,599L1701,518L1648,608Z" fill="#142123" stroke="#142123" stroke-width="1.51"/><path d="M54,1043L-86,1041L492,1059Z" fill="#1d2e35" stroke="#1d2e35" stroke-width="1.51"/><path d="M-126,990L-86,1041L-90,874Z" fill="#1f3139" stroke="#1f3139" stroke-width="1.51"/><path d="M1701,518L1683,346L1553,344Z" fill="#172629" stroke="#172629" stroke-width="1.51"/><path d="M-158,828L-152,920L-90,874Z" fill="#20313a" stroke="#20313a" stroke-width="1.51"/><path d="M-152,920L-126,990L-90,874Z" fill="#1f3139" stroke="#1f3139" stroke-width="1.51"/><path d="M1683,346L1671,235L1553,344Z" fill="#19282d" stroke="#19282d" stroke-width="1.51"/><path d="M1573,132L1555,-47L1515,142Z" fill="#1e2e36" stroke="#1e2e36" stroke-width="1.51"/><path d="M-37,-41L69,145L123,-2Z" fill="#304a5a" stroke="#304a5a" stroke-width="1.51"/><path d="M1248,1076L1617,1036L1483,998Z" fill="#0d1818" stroke="#0d1818" stroke-width="1.51"/><path d="M1483,998L1617,1036L1594,844Z" fill="#0d1818" stroke="#0d1818" stroke-width="1.51"/><path d="M34,-151L-37,-41L123,-2Z" fill="#304b5c" stroke="#304b5c" stroke-width="1.51"/><path d="M-219,-60L-140,105L-121,101Z" fill="#304a5b" stroke="#304a5b" stroke-width="1.51"/><path d="M-121,101L-140,105L-54,203Z" fill="#2e4857" stroke="#2e4857" stroke-width="1.51"/><path d="M-209,264L-252,610L-167,322Z" fill="#29404d" stroke="#29404d" stroke-width="1.51"/><path d="M-167,322L-252,610L-131,479Z" fill="#273e4a" stroke="#273e4a" stroke-width="1.51"/><path d="M-158,828L-252,610L-152,920Z" fill="#21343d" stroke="#21343d" stroke-width="1.51"/><path d="M1683,346L1720,331L1671,235Z" fill="#19282d" stroke="#19282d" stroke-width="1.51"/><path d="M1701,518L1720,331L1683,346Z" fill="#17262a" stroke="#17262a" stroke-width="1.51"/><path d="M1806,599L1720,331L1701,518Z" fill="#162327" stroke="#162327" stroke-width="1.51"/><path d="M-140,105L-209,264L-54,203Z" fill="#2d4655" stroke="#2d4655" stroke-width="1.51"/><path d="M1676,773L1758,780L1648,608Z" fill="#121d1e" stroke="#121d1e" stroke-width="1.51"/><path d="M1617,1036L1697,901L1594,844Z" fill="#0d1818" stroke="#0d1818" stroke-width="1.51"/><path d="M205,-179L34,-151L123,-2Z" fill="#2f495a" stroke="#2f495a" stroke-width="1.51"/><path d="M-37,-41L-219,-60L-121,101Z" fill="#314c5d" stroke="#314c5d" stroke-width="1.51"/><path d="M1746,49L1573,132L1671,235Z" fill="#1c2d34" stroke="#1c2d34" stroke-width="1.51"/><path d="M1669,-63L1555,-47L1573,132Z" fill="#1f3138" stroke="#1f3138" stroke-width="1.51"/><path d="M1428,-69L1538,-87L1338,-154Z" fill="#1f3139" stroke="#1f3139" stroke-width="1.51"/><path d="M1669,-63L1538,-87L1555,-47Z" fill="#1f3139" stroke="#1f3139" stroke-width="1.51"/><path d="M1555,-47L1538,-87L1428,-69Z" fill="#1f3139" stroke="#1f3139" stroke-width="1.51"/><path d="M1697,901L1758,780L1676,773Z" fill="#0f1a1b" stroke="#0f1a1b" stroke-width="1.51"/><path d="M205,-179L-5,-176L34,-151Z" fill="#304a5b" stroke="#304a5b" stroke-width="1.51"/><path d="M34,-151L-5,-176L-37,-41Z" fill="#314c5d" stroke="#314c5d" stroke-width="1.51"/><path d="M673,-190L-5,-176L205,-179Z" fill="#2d4655" stroke="#2d4655" stroke-width="1.51"/><path d="M1758,780L1806,599L1648,608Z" fill="#121e20" stroke="#121e20" stroke-width="1.51"/><path d="M1720,331L1794,191L1671,235Z" fill="#1a2a2f" stroke="#1a2a2f" stroke-width="1.51"/><path d="M1801,187L1794,191L1720,331Z" fill="#1a2a30" stroke="#1a2a30" stroke-width="1.51"/><path d="M1746,49L1669,-63L1573,132Z" fill="#1e3037" stroke="#1e3037" stroke-width="1.51"/><path d="M1538,-87L1682,-106L1338,-154Z" fill="#1f3139" stroke="#1f3139" stroke-width="1.51"/><path d="M1794,191L1746,49L1671,235Z" fill="#1c2c33" stroke="#1c2c33" stroke-width="1.51"/><path d="M1806,599L1801,187L1720,331Z" fill="#18262b" stroke="#18262b" stroke-width="1.51"/><path d="M1801,187L1746,49L1794,191Z" fill="#1c2d33" stroke="#1c2d33" stroke-width="1.51"/><path d="M-218,-69L-219,-60L-37,-41Z" fill="#314c5d" stroke="#314c5d" stroke-width="1.51"/><path d="M-140,105L-219,-60L-209,264Z" fill="#2f4958" stroke="#2f4958" stroke-width="1.51"/><path d="M-209,264L-219,-60L-252,610Z" fill="#2b4352" stroke="#2b4352" stroke-width="1.51"/><path d="M1810,-150L1682,-106L1669,-63Z" fill="#1f3139" stroke="#1f3139" stroke-width="1.51"/><path d="M1669,-63L1682,-106L1538,-87Z" fill="#1f3139" stroke="#1f3139" stroke-width="1.51"/><path d="M1758,780L1772,1090L1806,599Z" fill="#0f1a1a" stroke="#0f1a1a" stroke-width="1.51"/><path d="M1697,901L1772,1090L1758,780Z" fill="#0d1818" stroke="#0d1818" stroke-width="1.51"/><path d="M1617,1036L1772,1090L1697,901Z" fill="#0d1818" stroke="#0d1818" stroke-width="1.51"/><path d="M1248,1076L1772,1090L1617,1036Z" fill="#0d1818" stroke="#0d1818" stroke-width="1.51"/><path d="M492,1059L1772,1090L1248,1076Z" fill="#111c1e" stroke="#111c1e" stroke-width="1.51"/><path d="M-5,-176L-218,-69L-37,-41Z" fill="#314c5d" stroke="#314c5d" stroke-width="1.51"/><path d="M1746,49L1810,-150L1669,-63Z" fill="#1f3139" stroke="#1f3139" stroke-width="1.51"/><path d="M1682,-106L1810,-150L1338,-154Z" fill="#1f3139" stroke="#1f3139" stroke-width="1.51"/><path d="M1338,-154L1810,-150L673,-190Z" fill="#21343d" stroke="#21343d" stroke-width="1.51"/><path d="M1801,187L1810,-150L1746,49Z" fill="#1f3038" stroke="#1f3038" stroke-width="1.51"/><path d="M1806,599L1810,-150L1801,187Z" fill="#1b2b31" stroke="#1b2b31" stroke-width="1.51"/></svg>